<?xml version="1.0" encoding="UTF-8" standalone="no"?>
<svg
   xmlns:dc="http://purl.org/dc/elements/1.1/"
   xmlns:cc="http://creativecommons.org/ns#"
   xmlns:rdf="http://www.w3.org/1999/02/22-rdf-syntax-ns#"
   xmlns:svg="http://www.w3.org/2000/svg"
   xmlns="http://www.w3.org/2000/svg"
   id="Ebene_1"
   data-name="Ebene 1"
   viewBox="0 0 596.63 35.25"
   version="1.1">
  <metadata
     id="metadata33">
    <rdf:RDF>
      <cc:Work
         rdf:about="">
        <dc:format>image/svg+xml</dc:format>
        <dc:type
           rdf:resource="http://purl.org/dc/dcmitype/StillImage" />
        <dc:title>smashinglogo</dc:title>
      </cc:Work>
    </rdf:RDF>
  </metadata>
  <defs
     id="defs31" />
  <title
     id="title2">smashinglogo</title>
  <path
     d="m 32.020399,18.570134 a 13.38,13.38 0 0 0 -2.88,-1.92 26.71,26.71 0 0 0 -3.5,-1.44 c -1.23,-0.41 -2.5,-0.78 -3.82,-1.09 -1.32,-0.31 -2.58,-0.59 -3.81,-0.85 l -3.5,-0.77 a 27.17,27.17 0 0 1 -2.89,-0.79 6.68,6.68 0 0 1 -1.9999999,-1 1.54,1.54 0 0 1 -0.72,-1.2499996 1.49,1.49 0 0 1 0.09,-0.48 1.12,1.12 0 0 1 0.37,-0.52 3.14,3.14 0 0 1 0.8199999,-0.52 7.48,7.48 0 0 1 1.45,-0.44 19.87,19.87 0 0 1 2.27,-0.31 c 0.9,-0.08 2,-0.12 3.26,-0.12 a 30.84,30.84 0 0 1 4.65,0.35 37.88,37.88 0 0 1 4.2,0.86 c 1.29,0.34 2.44,0.7 3.46,1.08 1.02,0.38 1.84,0.7299996 2.46,0.9999996 V 2.7701344 c -1,-0.33 -2.16,-0.65 -3.38,-0.95 -1.22,-0.3 -2.48,-0.57 -3.78,-0.8 -1.3,-0.22999999 -2.63,-0.40999999 -4,-0.53999999 -1.37,-0.13 -2.66,-0.19 -3.93,-0.19 -1.27,0 -2.39,0.05 -3.67,0.14 a 30.52,30.52 0 0 0 -3.8199999,0.53 19.9,19.9 0 0 0 -3.59,1.06999999 10.89,10.89 0 0 0 -3,1.8 8.29,8.29 0 0 0 -2.06000005,2.69 8.49,8.49 0 0 0 -0.77,3.7399996 7,7 0 0 0 0.72,3.24 8,8 0 0 0 2.00000005,2.45 12.79,12.79 0 0 0 2.88,1.84 28,28 0 0 0 3.5,1.36 c 1.2299999,0.39 2.4999999,0.73 3.7999999,1 1.3,0.27 2.58,0.56 3.81,0.8 1.23,0.24 2.4,0.5 3.5,0.74 a 26.65,26.65 0 0 1 2.88,0.81 6.73,6.73 0 0 1 2,1 1.72,1.72 0 0 1 0.71,1.37 1.88,1.88 0 0 1 -0.35,1.05 3.21,3.21 0 0 1 -1.36,1 11.39,11.39 0 0 1 -2.78,0.76 28.67,28.67 0 0 1 -4.6,0.3 37.17,37.17 0 0 1 -8.9499999,-1 29.76,29.76 0 0 1 -7.46000005,-2.84 v 7.83 a 45.61,45.61 0 0 0 7.31000005,2 47.79,47.79 0 0 0 8.9999999,0.8 c 1.24,0 2.55,0 3.92,-0.12 a 32.47,32.47 0 0 0 4.08,-0.5 22,22 0 0 0 3.86,-1.09 11.3,11.3 0 0 0 3.23,-1.87 8.74,8.74 0 0 0 2.23,-2.86 9,9 0 0 0 0.84,-4.06 7.21,7.21 0 0 0 -0.72,-3.27 8.5,8.5 0 0 0 -1.96,-2.43 z"
     id="path4" />
  <path
     id="path6"
     d="M 69.33,26.02 56.09,1.21 H 44.06 v 32.78 h 8.86 V 10.97 l 12.16,23.02 h 8.5 L 85.75,10.97 v 23.02 h 8.8 V 1.21 H 82.57 Z"
     style="" />
  <path
     d="m 119.08,1.2 -17.16,32.78 h 9.88 l 3.08,-6.21 h 18.28 l 3.07,6.21 h 9.88 L 128.96,1.19 Z m -1,20.19 6,-12.07 6,12.07 z"
     id="path8" />
  <path
     d="m 183.7304,18.570134 a 13.63,13.63 0 0 0 -2.88,-1.92 26.71,26.71 0 0 0 -3.5,-1.44 c -1.23,-0.41 -2.51,-0.78 -3.82,-1.09 -1.31,-0.31 -2.58,-0.59 -3.82,-0.85 l -3.49,-0.77 a 27.17,27.17 0 0 1 -2.89,-0.79 6.68,6.68 0 0 1 -1.95,-1 1.54,1.54 0 0 1 -0.72,-1.2499996 1.78,1.78 0 0 1 0.08,-0.48 1.29,1.29 0 0 1 0.37,-0.52 3.22,3.22 0 0 1 0.83,-0.52 7.26,7.26 0 0 1 1.45,-0.44 19.56,19.56 0 0 1 2.27,-0.31 c 0.9,-0.08 2,-0.12 3.26,-0.12 a 30.84,30.84 0 0 1 4.65,0.35 37.88,37.88 0 0 1 4.2,0.86 c 1.29,0.34 2.44,0.7 3.46,1.08 1.02,0.38 1.83,0.7299996 2.45,0.9999996 V 2.7701344 c -1,-0.33 -2.15,-0.65 -3.37,-0.95 -1.22,-0.3 -2.48,-0.57 -3.78,-0.8 -1.3,-0.22999999 -2.63,-0.40999999 -4,-0.53999999 -1.37,-0.13 -2.65,-0.19 -3.92,-0.19 -1.27,0 -2.39,0.05 -3.67,0.14 a 30.26,30.26 0 0 0 -3.82,0.53 19.66,19.66 0 0 0 -3.59,1.06999999 10.89,10.89 0 0 0 -3,1.8 8.16,8.16 0 0 0 -2.06,2.69 8.49,8.49 0 0 0 -0.77,3.7399996 7,7 0 0 0 0.72,3.24 8,8 0 0 0 2,2.45 12.57,12.57 0 0 0 2.88,1.84 28,28 0 0 0 3.5,1.36 c 1.23,0.39 2.5,0.73 3.8,1 1.3,0.27 2.58,0.56 3.81,0.8 1.23,0.24 2.4,0.5 3.49,0.74 a 26.88,26.88 0 0 1 2.89,0.81 6.73,6.73 0 0 1 2,1 1.75,1.75 0 0 1 0.71,1.37 2,2 0 0 1 -0.35,1.05 3.21,3.21 0 0 1 -1.36,1 11.39,11.39 0 0 1 -2.78,0.76 28.67,28.67 0 0 1 -4.6,0.3 37.31,37.31 0 0 1 -9,-1 29.83,29.83 0 0 1 -7.45,-2.84 v 7.83 a 45.32,45.32 0 0 0 7.31,2 47.79,47.79 0 0 0 9,0.8 c 1.24,0 2.55,0 3.92,-0.12 a 32.47,32.47 0 0 0 4.08,-0.5 22,22 0 0 0 3.86,-1.09 11.3,11.3 0 0 0 3.23,-1.87 8.74,8.74 0 0 0 2.23,-2.86 9,9 0 0 0 0.83,-4.06 7.21,7.21 0 0 0 -0.71,-3.27 8.5,8.5 0 0 0 -1.98,-2.43 z"
     id="path10" />
  <path
     id="path12"
     d="m 277.26001,1.21 h 8.85 v 32.779999 h -8.85 z"
     style="" />
  <path
     id="path14"
     d="M 330.13,23.83 307.99,1.21 h -9.62 v 32.78 h 8.85 V 11.47 l 22.12,22.52 h 9.59 V 1.21 h -8.8 z"
     style="" />
  <path
     d="m 369.87981,22.649725 h 9.92 v 4 l -1.75,0.51 c -0.56,0.15 -1.17,0.29 -1.81,0.4 -0.64,0.11 -1.36,0.2 -2.14,0.26 -0.78,0.06 -1.69,0.1 -2.74,0.1 a 25.54,25.54 0 0 1 -5.39,-0.49 16.31,16.31 0 0 1 -3.88,-1.3 9.19,9.19 0 0 1 -2.61,-1.86 8.84,8.84 0 0 1 -1.57,-2.2 8.44,8.44 0 0 1 -0.76,-2.29 11.28,11.28 0 0 1 0,-4.43 8.05,8.05 0 0 1 0.85,-2.34 8.51,8.51 0 0 1 1.7,-2.16 9.91,9.91 0 0 1 2.74,-1.7799999 18.32,18.32 0 0 1 4,-1.22 29.4,29.4 0 0 1 5.49,-0.45 33.9,33.9 0 0 1 4.82,0.33 36.43,36.43 0 0 1 4.29,0.89 28.77,28.77 0 0 1 3.71,1.26 30.48,30.48 0 0 1 3.07,1.4799999 V 3.3597251 a 50.67,50.67 0 0 0 -7.6,-2.11 45.9,45.9 0 0 0 -9,-0.81999998 41.5,41.5 0 0 0 -6.07,0.43 31.17,31.17 0 0 0 -5.54,1.31999998 22.66,22.66 0 0 0 -4.75,2.28 15.35,15.35 0 0 0 -3.69,3.29 14.46,14.46 0 0 0 -2.4,4.3899999 17,17 0 0 0 -0.86,5.54 17.49,17.49 0 0 0 0.82,5.55 14.57,14.57 0 0 0 2.32,4.38 14.74,14.74 0 0 0 3.6,3.29 21.63,21.63 0 0 0 4.68,2.28 30.53,30.53 0 0 0 5.52,1.32 42.43,42.43 0 0 0 6.18,0.43 c 1.38,0 2.85,-0.06 4.41,-0.19 1.56,-0.13 3.12,-0.31 4.67,-0.54 1.55,-0.23 3,-0.51 4.51,-0.83 a 40.13,40.13 0 0 0 3.95,-1.09 v -16.81 h -18.69 z"
     id="path16" />
  <path
     id="path18"
     d="M 257.83,13.18 H 204.22 V 1.17 h -8.91 v 33 h 8.91 V 20.41 h 53.61 v 13.76 h 8.92 V 26.25 1.17 h -8.92 z"
     style="" />
  <path
     id="path20"
     d="m 421.67,0.61 h -3.32 v 33.98 h 27.96 v -3.13 h -24.64 z"
     style="" />
  <path
     d="m 490.14977,4.2297311 a 19.63,19.63 0 0 0 -6.82,-3.2 32.92,32.92 0 0 0 -8.44,-1.00000002 36,36 0 0 0 -5.79,0.45 25.23,25.23 0 0 0 -5.16,1.41000002 19.74,19.74 0 0 0 -4.37,2.38 14.6,14.6 0 0 0 -3.35,3.4 15.63,15.63 0 0 0 -2.15,4.4599999 18.64,18.64 0 0 0 -0.77,5.52 17.77,17.77 0 0 0 1.65,7.9 15.18,15.18 0 0 0 4.55,5.43 19.91,19.91 0 0 0 6.86,3.2 33.45,33.45 0 0 0 8.5,1 32.86,32.86 0 0 0 8.44,-1 19.63,19.63 0 0 0 6.82,-3.2 15.39,15.39 0 0 0 4.55,-5.49 19.74,19.74 0 0 0 0,-15.7999999 15.39,15.39 0 0 0 -4.52,-5.46 z m 1.66,19.6699999 a 11.86,11.86 0 0 1 -3.42,4.58 15.42,15.42 0 0 1 -5.64,2.83 32.78,32.78 0 0 1 -15.75,0 15.66,15.66 0 0 1 -5.69,-2.83 11.93,11.93 0 0 1 -3.45,-4.58 17.36,17.36 0 0 1 0,-12.53 11.87,11.87 0 0 1 3.45,-4.5899999 15.82,15.82 0 0 1 5.69,-2.8 32.45,32.45 0 0 1 15.75,0 15.42,15.42 0 0 1 5.64,2.83 11.86,11.86 0 0 1 3.42,4.5799999 17.72,17.72 0 0 1 0,12.56 z"
     id="path22" />
  <path
     d="m 527.31972,20.669958 h 13.72 v 10 c -0.61,0.19 -1.36,0.37 -2.23,0.55 -0.87,0.18 -1.93,0.36 -3,0.51 -1.07,0.15 -2.3,0.29 -3.54,0.38 -1.24,0.09 -2.52,0.15 -3.78,0.15 a 29.4,29.4 0 0 1 -8.49,-1.1 17.59,17.59 0 0 1 -6,-3 12.42,12.42 0 0 1 -3.58,-4.63 14.63,14.63 0 0 1 -1.18,-5.88 15.2,15.2 0 0 1 1.2,-6.13 12.13,12.13 0 0 1 3.62,-4.6200002 17.27,17.27 0 0 1 6,-2.92 31.91,31.91 0 0 1 8.54,-1 28.84,28.84 0 0 1 4.49,0.34 27.31,27.31 0 0 1 3.91,0.93 24.85,24.85 0 0 1 3.4,1.37 33.33,33.33 0 0 1 3,1.66 l 0.19,0.12 v -4 h -0.07 c -1.18,-0.49 -2.36,-0.94 -3.52,-1.34 a 37.43,37.43 0 0 0 -3.6,-1 34.47,34.47 0 0 0 -3.86,-0.65999999 37.3,37.3 0 0 0 -4.36,-0.23 35.88,35.88 0 0 0 -6,0.48 26.45,26.45 0 0 0 -5.34,1.42999999 20.28,20.28 0 0 0 -4.52,2.4 15.19,15.19 0 0 0 -5.73,7.8600002 18,18 0 0 0 -0.79,5.45 16.79,16.79 0 0 0 1.71,7.79 15.53,15.53 0 0 0 4.71,5.5 21,21 0 0 0 7.1,3.26 35.06,35.06 0 0 0 8.87,1.07 c 1.55,0 3.06,-0.05 4.46,-0.17 1.4,-0.12 2.79,-0.28 4.11,-0.5 1.32,-0.22 2.6,-0.5 3.84,-0.83 1.24,-0.33 2.47,-0.7 3.68,-1.13 h 0.08 v -15 h -17 z"
     id="path24" />
  <path
     d="m 594.97952,9.719818 a 15.39,15.39 0 0 0 -4.55,-5.49 19.63,19.63 0 0 0 -6.82,-3.2 32.92,32.92 0 0 0 -8.44,-1.00000004 36,36 0 0 0 -5.79,0.45 25.06,25.06 0 0 0 -5.16,1.41000004 19.52,19.52 0 0 0 -4.37,2.38 14.41,14.41 0 0 0 -3.35,3.4 15.92,15.92 0 0 0 -2.16,4.46 19,19 0 0 0 -0.76,5.52 17.63,17.63 0 0 0 1.65,7.9 15.18,15.18 0 0 0 4.58,5.49 19.91,19.91 0 0 0 6.86,3.2 33.39,33.39 0 0 0 8.5,1 32.92,32.92 0 0 0 8.44,-1 19.63,19.63 0 0 0 6.82,-3.2 15.39,15.39 0 0 0 4.55,-5.49 19.74,19.74 0 0 0 0,-15.8 z m -2.89,14.18 a 11.86,11.86 0 0 1 -3.42,4.58 15.42,15.42 0 0 1 -5.64,2.83 32.78,32.78 0 0 1 -15.75,0 15.66,15.66 0 0 1 -5.69,-2.83 11.93,11.93 0 0 1 -3.45,-4.58 17.36,17.36 0 0 1 0,-12.53 11.87,11.87 0 0 1 3.45,-4.59 15.82,15.82 0 0 1 5.69,-2.83 32.45,32.45 0 0 1 15.75,0 15.42,15.42 0 0 1 5.64,2.83 11.86,11.86 0 0 1 3.42,4.58 17.72,17.72 0 0 1 0,12.56 z"
     id="path26" />
</svg>
